<svg xmlns="http://www.w3.org/2000/svg" viewBox="0 0 449 300" fill="none" height="200"><style xmlns=""/><style xmlns=""/><style xmlns=""/>
<rect width="449" height="286"/>
<path d="M59.2 261C53.8 261 51.1 258.3 51.1 252.9V198.6C51.1 193.2 53.8 190.5 59.2 190.5H78.7C90.7 190.5 100 193.567 106.6 199.7C113.2 205.767 116.5 214.433 116.5 225.7C116.5 236.967 113.2 245.667 106.6 251.8C100 257.933 90.7 261 78.7 261H59.2ZM66.6 248.3H77.8C92.8 248.3 100.3 240.767 100.3 225.7C100.3 210.7 92.8 203.2 77.8 203.2H66.6V248.3ZM128.881 261.9C126.081 261.9 124.081 260.967 122.881 259.1C121.681 257.233 121.715 254.933 122.981 252.2L148.581 196.1C149.648 193.833 150.915 192.2 152.381 191.2C153.848 190.133 155.548 189.6 157.481 189.6C159.415 189.6 161.115 190.133 162.581 191.2C164.048 192.2 165.281 193.833 166.281 196.1L192.081 252.2C193.348 255 193.381 257.333 192.181 259.2C191.048 261 189.181 261.9 186.581 261.9C184.315 261.9 182.548 261.367 181.281 260.3C180.081 259.233 179.015 257.567 178.081 255.3L173.881 245.7H140.981L136.881 255.3C135.881 257.633 134.815 259.333 133.681 260.4C132.548 261.4 130.948 261.9 128.881 261.9ZM157.281 207L146.181 233.6H168.781L157.481 207H157.281ZM218.864 261.9C216.331 261.9 214.397 261.2 213.064 259.8C211.731 258.4 211.064 256.433 211.064 253.9V203.3H193.364C189.031 203.3 186.864 201.167 186.864 196.9C186.864 192.633 189.031 190.5 193.364 190.5H244.264C248.597 190.5 250.764 192.633 250.764 196.9C250.764 201.167 248.597 203.3 244.264 203.3H226.564V253.9C226.564 256.433 225.897 258.4 224.564 259.8C223.297 261.2 221.397 261.9 218.864 261.9ZM251.538 261.9C248.738 261.9 246.738 260.967 245.538 259.1C244.338 257.233 244.371 254.933 245.638 252.2L271.238 196.1C272.304 193.833 273.571 192.2 275.038 191.2C276.504 190.133 278.204 189.6 280.138 189.6C282.071 189.6 283.771 190.133 285.238 191.2C286.704 192.2 287.938 193.833 288.938 196.1L314.738 252.2C316.004 255 316.038 257.333 314.838 259.2C313.704 261 311.838 261.9 309.238 261.9C306.971 261.9 305.204 261.367 303.938 260.3C302.738 259.233 301.671 257.567 300.738 255.3L296.538 245.7H263.638L259.538 255.3C258.538 257.633 257.471 259.333 256.338 260.4C255.204 261.4 253.604 261.9 251.538 261.9ZM279.938 207L268.837 233.6H291.438L280.138 207H279.938Z" fill="#8FCFE0"/>
<path d="M325.83 261.9C323.83 261.9 322.23 261.333 321.03 260.2C319.83 259 319.23 257.533 319.23 255.8C319.23 254.067 319.964 252.367 321.43 250.7L344.63 224.6L330.23 200.5C329.164 198.633 328.73 196.9 328.93 195.3C329.197 193.633 329.964 192.267 331.23 191.2C332.497 190.133 334.13 189.6 336.13 189.6C337.93 189.6 339.364 190.033 340.43 190.9C341.564 191.7 342.764 193.233 344.03 195.5L355.03 214.8L372.13 194.5C373.664 192.7 375.03 191.433 376.23 190.7C377.497 189.967 378.997 189.6 380.73 189.6C382.797 189.6 384.43 190.2 385.63 191.4C386.83 192.533 387.464 193.967 387.53 195.7C387.597 197.367 386.93 199 385.53 200.6L363.03 226L377.93 251C378.997 252.733 379.397 254.433 379.13 256.1C378.864 257.767 378.064 259.167 376.73 260.3C375.464 261.367 373.83 261.9 371.83 261.9C370.03 261.9 368.564 261.5 367.43 260.7C366.364 259.833 365.197 258.3 363.93 256.1L352.23 235.9L334.53 257C332.997 258.867 331.597 260.167 330.33 260.9C329.13 261.567 327.63 261.9 325.83 261.9Z" fill="#FD5B2F"/>
<path d="M199.486 26.7513C199.486 30.4584 200.635 33.8996 202.594 36.7268H162.47V74.8159C159.647 72.8544 156.21 71.7033 152.509 71.7033C142.844 71.7033 135 79.5583 135 89.2425C135 98.9263 142.844 106.782 152.509 106.782C156.21 106.782 159.647 105.631 162.47 103.672V145.709H202.594C200.635 148.536 199.486 151.978 199.486 155.685C199.486 165.363 207.33 173.218 217 173.218C226.67 173.218 234.514 165.363 234.514 155.685C234.514 151.978 233.365 148.536 231.406 145.709H271.53V103.672C274.353 105.631 277.79 106.782 281.491 106.782C291.156 106.782 299 98.9267 299 89.2425C299 79.5583 291.156 71.7033 281.491 71.7033C277.79 71.7033 274.353 72.8544 271.53 74.8159V36.7268H231.406C233.365 33.8996 234.514 30.4584 234.514 26.7513" stroke="#8FCFE0" stroke-width="10" stroke-miterlimit="10" stroke-linecap="round" stroke-linejoin="round"/>
<path d="M240.083 29.5284C239.807 33.2587 238.32 36.8255 236.273 39.9552C232.489 45.7401 227.077 50.39 221.451 54.3103V54.3103C218.857 56.1143 214.613 56.1143 212.018 54.3103V54.3103C206.392 50.39 200.981 45.7401 197.197 39.9552C195.149 36.8252 193.663 33.2587 193.386 29.5284C192.935 23.4507 196.093 17.2541 202.174 15.4419C204.79 14.6619 207.607 14.9123 210.013 16.2128V16.2128C221.413 22.4109 212.057 22.4109 223.457 16.2128V16.2128C225.864 14.9123 228.68 14.6616 231.296 15.4419C237.377 17.2541 240.535 23.4507 240.083 29.5284Z" fill="white" stroke="#8FCFE0" stroke-width="10" stroke-miterlimit="10" stroke-linecap="round" stroke-linejoin="round"/>
<script xmlns=""/><script xmlns=""/><script xmlns=""/></svg>